G04 #@! TF.FileFunction,Soldermask,Bot*
%FSLAX46Y46*%
G04 Gerber Fmt 4.6, Leading zero omitted, Abs format (unit mm)*
G04 Created by KiCad (PCBNEW 4.0.2-stable) date 05/04/2017 02:23:03*
%MOMM*%
G01*
G04 APERTURE LIST*
%ADD10C,0.100000*%
%ADD11R,0.750000X0.800000*%
%ADD12R,1.600000X1.600000*%
%ADD13O,1.600000X1.600000*%
%ADD14R,0.800000X0.750000*%
%ADD15R,0.800000X0.900000*%
%ADD16R,0.900000X0.800000*%
%ADD17R,1.500000X0.600000*%
%ADD18R,1.700000X1.700000*%
%ADD19O,1.700000X1.700000*%
%ADD20R,0.500000X0.900000*%
%ADD21R,0.900000X0.500000*%
%ADD22R,1.727200X1.727200*%
%ADD23O,1.727200X1.727200*%
%ADD24C,2.350000*%
%ADD25C,1.600000*%
%ADD26C,5.999480*%
%ADD27C,2.200000*%
%ADD28C,1.524000*%
G04 APERTURE END LIST*
D10*
D11*
X130750000Y-101000000D03*
X130750000Y-102500000D03*
D12*
X187000000Y-86360000D03*
D13*
X194620000Y-106680000D03*
X187000000Y-88900000D03*
X194620000Y-104140000D03*
X187000000Y-91440000D03*
X194620000Y-101600000D03*
X187000000Y-93980000D03*
X194620000Y-99060000D03*
X187000000Y-96520000D03*
X194620000Y-96520000D03*
X187000000Y-99060000D03*
X194620000Y-93980000D03*
X187000000Y-101600000D03*
X194620000Y-91440000D03*
X187000000Y-104140000D03*
X194620000Y-88900000D03*
X187000000Y-106680000D03*
X194620000Y-86360000D03*
D14*
X149250000Y-111500000D03*
X150750000Y-111500000D03*
D11*
X132750000Y-74750000D03*
X132750000Y-76250000D03*
D15*
X128200000Y-111250000D03*
X126300000Y-111250000D03*
X127250000Y-109250000D03*
D16*
X156500000Y-70550000D03*
X156500000Y-72450000D03*
X154500000Y-71500000D03*
D17*
X149550000Y-109810000D03*
X149550000Y-108540000D03*
X149550000Y-107270000D03*
X149550000Y-106000000D03*
X149550000Y-104730000D03*
X149550000Y-103460000D03*
X149550000Y-102190000D03*
X154950000Y-102190000D03*
X154950000Y-103460000D03*
X154950000Y-104730000D03*
X154950000Y-106000000D03*
X154950000Y-107270000D03*
X154950000Y-108540000D03*
X154950000Y-109810000D03*
D18*
X108000000Y-104140000D03*
D19*
X108000000Y-101600000D03*
X108000000Y-99060000D03*
X108000000Y-96520000D03*
X108000000Y-93980000D03*
X108000000Y-91440000D03*
X108000000Y-88900000D03*
X108000000Y-86360000D03*
D18*
X108000000Y-78740000D03*
D19*
X108000000Y-76200000D03*
X108000000Y-73660000D03*
X108000000Y-71120000D03*
X108000000Y-68580000D03*
X108000000Y-66040000D03*
X108000000Y-63500000D03*
X108000000Y-60960000D03*
D18*
X200000000Y-60960000D03*
D19*
X200000000Y-63500000D03*
X200000000Y-66040000D03*
X200000000Y-68580000D03*
X200000000Y-71120000D03*
X200000000Y-73660000D03*
X200000000Y-76200000D03*
X200000000Y-78740000D03*
D18*
X200000000Y-86360000D03*
D19*
X200000000Y-88900000D03*
X200000000Y-91440000D03*
X200000000Y-93980000D03*
X200000000Y-96520000D03*
X200000000Y-99060000D03*
X200000000Y-101600000D03*
X200000000Y-104140000D03*
D20*
X131250000Y-111250000D03*
X129750000Y-111250000D03*
X111500000Y-113500000D03*
X113000000Y-113500000D03*
X160500000Y-101500000D03*
X162000000Y-101500000D03*
D21*
X158500000Y-68750000D03*
X158500000Y-70250000D03*
X152500000Y-70250000D03*
X152500000Y-68750000D03*
D17*
X125300000Y-74445000D03*
X125300000Y-73175000D03*
X125300000Y-71905000D03*
X125300000Y-70635000D03*
X125300000Y-69365000D03*
X125300000Y-68095000D03*
X125300000Y-66825000D03*
X125300000Y-65555000D03*
X130700000Y-65555000D03*
X130700000Y-66825000D03*
X130700000Y-68095000D03*
X130700000Y-69365000D03*
X130700000Y-70635000D03*
X130700000Y-71905000D03*
X130700000Y-73175000D03*
X130700000Y-74445000D03*
X125300000Y-99445000D03*
X125300000Y-98175000D03*
X125300000Y-96905000D03*
X125300000Y-95635000D03*
X125300000Y-94365000D03*
X125300000Y-93095000D03*
X125300000Y-91825000D03*
X125300000Y-90555000D03*
X130700000Y-90555000D03*
X130700000Y-91825000D03*
X130700000Y-93095000D03*
X130700000Y-94365000D03*
X130700000Y-95635000D03*
X130700000Y-96905000D03*
X130700000Y-98175000D03*
X130700000Y-99445000D03*
X182700000Y-68555000D03*
X182700000Y-69825000D03*
X182700000Y-71095000D03*
X182700000Y-72365000D03*
X182700000Y-73635000D03*
X182700000Y-74905000D03*
X182700000Y-76175000D03*
X182700000Y-77445000D03*
X177300000Y-77445000D03*
X177300000Y-76175000D03*
X177300000Y-74905000D03*
X177300000Y-73635000D03*
X177300000Y-72365000D03*
X177300000Y-71095000D03*
X177300000Y-69825000D03*
X177300000Y-68555000D03*
X182700000Y-93555000D03*
X182700000Y-94825000D03*
X182700000Y-96095000D03*
X182700000Y-97365000D03*
X182700000Y-98635000D03*
X182700000Y-99905000D03*
X182700000Y-101175000D03*
X182700000Y-102445000D03*
X177300000Y-102445000D03*
X177300000Y-101175000D03*
X177300000Y-99905000D03*
X177300000Y-98635000D03*
X177300000Y-97365000D03*
X177300000Y-96095000D03*
X177300000Y-94825000D03*
X177300000Y-93555000D03*
D12*
X121000000Y-104140000D03*
D13*
X113380000Y-83820000D03*
X121000000Y-101600000D03*
X113380000Y-86360000D03*
X121000000Y-99060000D03*
X113380000Y-88900000D03*
X121000000Y-96520000D03*
X113380000Y-91440000D03*
X121000000Y-93980000D03*
X113380000Y-93980000D03*
X121000000Y-91440000D03*
X113380000Y-96520000D03*
X121000000Y-88900000D03*
X113380000Y-99060000D03*
X121000000Y-86360000D03*
X113380000Y-101600000D03*
X121000000Y-83820000D03*
X113380000Y-104140000D03*
D12*
X121000000Y-78740000D03*
D13*
X113380000Y-58420000D03*
X121000000Y-76200000D03*
X113380000Y-60960000D03*
X121000000Y-73660000D03*
X113380000Y-63500000D03*
X121000000Y-71120000D03*
X113380000Y-66040000D03*
X121000000Y-68580000D03*
X113380000Y-68580000D03*
X121000000Y-66040000D03*
X113380000Y-71120000D03*
X121000000Y-63500000D03*
X113380000Y-73660000D03*
X121000000Y-60960000D03*
X113380000Y-76200000D03*
X121000000Y-58420000D03*
X113380000Y-78740000D03*
D12*
X187000000Y-60960000D03*
D13*
X194620000Y-81280000D03*
X187000000Y-63500000D03*
X194620000Y-78740000D03*
X187000000Y-66040000D03*
X194620000Y-76200000D03*
X187000000Y-68580000D03*
X194620000Y-73660000D03*
X187000000Y-71120000D03*
X194620000Y-71120000D03*
X187000000Y-73660000D03*
X194620000Y-68580000D03*
X187000000Y-76200000D03*
X194620000Y-66040000D03*
X187000000Y-78740000D03*
X194620000Y-63500000D03*
X187000000Y-81280000D03*
X194620000Y-60960000D03*
D18*
X113500000Y-116000000D03*
D19*
X110960000Y-116000000D03*
X108420000Y-116000000D03*
X105880000Y-116000000D03*
D18*
X159250000Y-126250000D03*
D19*
X161790000Y-126250000D03*
X164330000Y-126250000D03*
X166870000Y-126250000D03*
X169410000Y-126250000D03*
X171950000Y-126250000D03*
D22*
X135000000Y-105000000D03*
D23*
X135000000Y-107540000D03*
X132460000Y-105000000D03*
X132460000Y-107540000D03*
X129920000Y-105000000D03*
X129920000Y-107540000D03*
D24*
X184430000Y-116000000D03*
X179350000Y-116000000D03*
X194670000Y-116000000D03*
X199750000Y-116000000D03*
X181890000Y-118540000D03*
X181890000Y-113460000D03*
X197210000Y-118540000D03*
X197210000Y-113460000D03*
D11*
X175500000Y-68500000D03*
X175500000Y-67000000D03*
X177000000Y-91750000D03*
X177000000Y-90250000D03*
D12*
X132000000Y-119500000D03*
D25*
X132000000Y-114500000D03*
D18*
X139250000Y-126250000D03*
D19*
X141790000Y-126250000D03*
X144330000Y-126250000D03*
X146870000Y-126250000D03*
D26*
X197500000Y-124750000D03*
X183000000Y-125000000D03*
D27*
X134000000Y-58000000D03*
X173500000Y-58000000D03*
X124000000Y-124000000D03*
D28*
X156000000Y-76000000D03*
X156000000Y-56000000D03*
M02*
