M48
;DRILL file {KiCad 4.0.2-stable} date 05/04/2017 02:19:29
;FORMAT={-:-/ absolute / metric / decimal}
FMAT,2
METRIC,TZ
T1C0.305
T2C0.762
T3C0.800
T4C1.000
T5C1.016
T6C1.350
T7C2.499
T8C2.200
%
G90
G05
M71
T1
X115.75Y-108.5
X121.75Y-81.25
X123.5Y-112.25
X126.75Y-76.
X127.Y-69.5
X128.25Y-72.
X128.25Y-75.75
X129.5Y-76.75
X130.Y-81.
X132.5Y-70.75
X132.75Y-94.5
X133.25Y-69.
X133.5Y-97.
X133.75Y-95.75
X134.Y-102.5
X134.5Y-67.
X135.Y-112.
X139.Y-91.
X144.5Y-71.
X145.Y-104.75
X146.Y-107.25
X147.25Y-79.5
X147.25Y-87.5
X147.25Y-108.5
X150.Y-97.5
X151.25Y-99.75
X151.5Y-102.25
X152.25Y-103.5
X152.25Y-104.75
X152.25Y-107.25
X152.25Y-122.25
X152.5Y-109.5
X154.75Y-93.
X158.5Y-99.75
X159.5Y-101.5
X166.5Y-101.75
X167.25Y-68.5
X168.25Y-107.
X172.Y-107.
X172.75Y-96.25
X172.75Y-97.5
X174.Y-96.5
X174.5Y-105.25
X175.5Y-93.5
X176.Y-64.
X179.25Y-75.
X179.25Y-99.75
X180.75Y-76.5
X180.75Y-99.75
T2
X156.Y-56.
X156.Y-76.
T3
X113.38Y-58.42
X113.38Y-60.96
X113.38Y-63.5
X113.38Y-66.04
X113.38Y-68.58
X113.38Y-71.12
X113.38Y-73.66
X113.38Y-76.2
X113.38Y-78.74
X113.38Y-83.82
X113.38Y-86.36
X113.38Y-88.9
X113.38Y-91.44
X113.38Y-93.98
X113.38Y-96.52
X113.38Y-99.06
X113.38Y-101.6
X113.38Y-104.14
X121.Y-58.42
X121.Y-60.96
X121.Y-63.5
X121.Y-66.04
X121.Y-68.58
X121.Y-71.12
X121.Y-73.66
X121.Y-76.2
X121.Y-78.74
X121.Y-83.82
X121.Y-86.36
X121.Y-88.9
X121.Y-91.44
X121.Y-93.98
X121.Y-96.52
X121.Y-99.06
X121.Y-101.6
X121.Y-104.14
X132.Y-114.5
X132.Y-119.5
X187.Y-60.96
X187.Y-63.5
X187.Y-66.04
X187.Y-68.58
X187.Y-71.12
X187.Y-73.66
X187.Y-76.2
X187.Y-78.74
X187.Y-81.28
X187.Y-86.36
X187.Y-88.9
X187.Y-91.44
X187.Y-93.98
X187.Y-96.52
X187.Y-99.06
X187.Y-101.6
X187.Y-104.14
X187.Y-106.68
X194.62Y-60.96
X194.62Y-63.5
X194.62Y-66.04
X194.62Y-68.58
X194.62Y-71.12
X194.62Y-73.66
X194.62Y-76.2
X194.62Y-78.74
X194.62Y-81.28
X194.62Y-86.36
X194.62Y-88.9
X194.62Y-91.44
X194.62Y-93.98
X194.62Y-96.52
X194.62Y-99.06
X194.62Y-101.6
X194.62Y-104.14
X194.62Y-106.68
T4
X105.88Y-116.
X108.Y-60.96
X108.Y-63.5
X108.Y-66.04
X108.Y-68.58
X108.Y-71.12
X108.Y-73.66
X108.Y-76.2
X108.Y-78.74
X108.Y-86.36
X108.Y-88.9
X108.Y-91.44
X108.Y-93.98
X108.Y-96.52
X108.Y-99.06
X108.Y-101.6
X108.Y-104.14
X108.42Y-116.
X110.96Y-116.
X113.5Y-116.
X139.25Y-126.25
X141.79Y-126.25
X144.33Y-126.25
X146.87Y-126.25
X159.25Y-126.25
X161.79Y-126.25
X164.33Y-126.25
X166.87Y-126.25
X169.41Y-126.25
X171.95Y-126.25
X200.Y-60.96
X200.Y-63.5
X200.Y-66.04
X200.Y-68.58
X200.Y-71.12
X200.Y-73.66
X200.Y-76.2
X200.Y-78.74
X200.Y-86.36
X200.Y-88.9
X200.Y-91.44
X200.Y-93.98
X200.Y-96.52
X200.Y-99.06
X200.Y-101.6
X200.Y-104.14
T5
X129.92Y-105.
X129.92Y-107.54
X132.46Y-105.
X132.46Y-107.54
X135.Y-105.
X135.Y-107.54
T6
X179.35Y-116.
X181.89Y-113.46
X181.89Y-118.54
X184.43Y-116.
X194.67Y-116.
X197.21Y-113.46
X197.21Y-118.54
X199.75Y-116.
T7
X183.Y-125.
X197.5Y-124.75
T8
X124.Y-124.
X134.Y-58.
X173.5Y-58.
T0
M30
